<?xml version="1.0" standalone="no"?>
<!DOCTYPE svg PUBLIC "-//W3C//DTD SVG 1.0//EN" "http://www.w3.org/TR/2001/REC-SVG-20010904/DTD/svg10.dtd">
<svg xmlns="http://www.w3.org/2000/svg" xmlns:xlink="http://www.w3.org/1999/xlink" id="body_1" width="10" height="9">

<g transform="matrix(0.088235304 0 0 0.088235304 0.3823532 -0)">
	<g transform="matrix(0.1 0 -0 -0.1 0 102)">
        <path d="M420 1005C 324 983 241 938 161 864C -96 626 -32 224 289 61C 312 49 366 30 407 19C 681 -51 964 92 1060 348C 1140 559 1052 799 847 931C 731 1006 557 1036 420 1005zM691 827C 721 814 763 791 784 775L784 775L821 747L791 716L761 686L738 707C 640 800 452 788 361 685C 316 633 300 592 300 525C 300 470 300 470 330 470C 382 470 379 444 321 387L321 387L270 335L214 392C 156 449 151 470 196 470C 219 470 220 473 220 529C 220 665 300 777 436 830C 507 858 619 856 691 827zM915 613C 968 556 971 540 930 540C 902 540 900 538 900 500C 900 401 824 289 718 233C 670 207 656 205 560 205C 459 205 452 206 390 240C 354 259 325 281 325 289C 325 297 336 311 350 321C 375 340 376 339 435 309C 490 281 501 279 575 282C 640 286 663 291 695 312C 775 363 820 433 820 505C 820 537 818 540 790 540C 773 540 760 545 760 552C 760 566 850 660 863 660C 867 660 891 639 915 613z" stroke="none" fill="#000000" fill-rule="nonzero" />
	</g>
</g>
</svg>